<svg width="32" height="32" viewBox="0 0 32 32" fill="none" xmlns="http://www.w3.org/2000/svg">
  <!-- Llama silhouette in orange/red gradient -->
  <defs>
    <linearGradient id="llamaGradient" x1="0%" y1="0%" x2="100%" y2="100%">
      <stop offset="0%" style="stop-color:#FF6B6B;stop-opacity:1" />
      <stop offset="100%" style="stop-color:#FF8E3C;stop-opacity:1" />
    </linearGradient>
  </defs>
  
  <!-- Background circle -->
  <circle cx="16" cy="16" r="15" fill="#1a1a1a" stroke="url(#llamaGradient)" stroke-width="2"/>
  
  <!-- Simplified llama head -->
  <path d="M8 18c0-3 2-5 4-6 1-1 2-1 3-1s2 0 3 1c2 1 4 3 4 6v6c0 1-1 2-2 2H10c-1 0-2-1-2-2v-6z" fill="url(#llamaGradient)"/>
  
  <!-- Llama ears -->
  <ellipse cx="11" cy="13" rx="1.5" ry="3" fill="url(#llamaGradient)"/>
  <ellipse cx="21" cy="13" rx="1.5" ry="3" fill="url(#llamaGradient)"/>
  
  <!-- Eyes -->
  <circle cx="13" cy="17" r="1" fill="#1a1a1a"/>
  <circle cx="19" cy="17" r="1" fill="#1a1a1a"/>
  
  <!-- Warning symbol overlay -->
  <path d="M24 8l-3 6h6l-3-6z" fill="#FFD93D" stroke="#1a1a1a" stroke-width="1"/>
  <circle cx="24" cy="11" r="0.5" fill="#1a1a1a"/>
  <rect x="23.7" y="12" width="0.6" height="1.5" fill="#1a1a1a"/>
</svg>